<svg height='100px' width='100px'  fill="#000000" xmlns="http://www.w3.org/2000/svg" viewBox="0 0 48 48" x="0px" y="0px"><g fill="none" fill-rule="evenodd"><path fill="#000000" fill-rule="nonzero" d="M26,6.10985756 L26,15 L22,15 L22,4.5 L22,2 L24,2 C36.1502645,2 46,11.8497355 46,24 C46,36.1502645 36.1502645,46 24,46 C11.8497355,46 2,36.1502645 2,24 C2,17.8773591 4.5164043,12.1518644 8.87439015,8.02445705 C9.47319994,7.45732993 10.1033433,6.92404596 10.7617189,6.42734978 L13.1707561,9.62055195 C12.6315815,10.0273197 12.1154495,10.4641169 11.6249435,10.9286706 C8.0565281,14.3082832 6,18.9874362 6,24 C6,33.9411255 14.0588745,42 24,42 C33.9411255,42 42,33.9411255 42,24 C42,14.7348927 34.9999009,7.10474613 26,6.10985756 Z M20.0018292,24.1221383 L12.9142136,13.9142136 L13.9142136,12.9142136 L24.1221383,20.0018292 C26.2747715,20.0663882 28,21.8317197 28,24 C28,26.209139 26.209139,28 24,28 C21.8317197,28 20.0663882,26.2747715 20.0018292,24.1221383 Z"></path></g></svg>