<svg height='100px' width='100px'  fill="#000000" xmlns="http://www.w3.org/2000/svg" xmlns:xlink="http://www.w3.org/1999/xlink" version="1.1" x="0px" y="0px" viewBox="0 0 100 100" enable-background="new 0 0 100 100" xml:space="preserve"><path d="M54.2,46.6l10.1-7.4c2.3-1.7,3.7-4.4,3.7-7.3V24h2c0.6,0,1-0.4,1-1v-8c0-0.6-0.4-1-1-1H30c-0.6,0-1,0.4-1,1v8  c0,0.6,0.4,1,1,1h2v7.9c0,2.9,1.4,5.6,3.7,7.3l10.1,7.4c1.498,1.123,1.716,3.329,0,4.8L35.7,58.8c-2.3,1.7-3.7,4.4-3.7,7.3V74h-2  c-0.6,0-1,0.4-1,1v8c0,0.6,0.4,1,1,1h40c0.6,0,1-0.4,1-1v-8c0-0.6-0.4-1-1-1h-2v-7.9c0-2.898-1.4-5.6-3.7-7.3L54.2,51.4  C52.604,50.031,52.609,47.963,54.2,46.6z M69,16v3.3H31V16H69z M31,20.3h38V22H31V20.3z M31,82v-3.3h38V82H31z M69,77.7H31V76h38  V77.7z M53,53l10.1,7.4C64.9,61.7,66,63.8,66,66v8H34v-7.9c0-2.199,1.1-4.3,2.9-5.6L47,53c2.591-1.795,2.736-5.948,0-8l-10.1-7.4  C35.1,36.3,34,34.2,34,32v-8h32v7.9c0,2.2-1.1,4.3-2.9,5.6L53,45C50.346,46.99,50.335,51.001,53,53z M63,32v1.1  c0,0.6-0.3,1.1-0.7,1.5L51.2,44c-0.4,0.4-0.7,0.9-0.7,1.5v15c0,0.6,0.3,1.1,0.7,1.5l7.6,6.5c1.4,1.2,0.601,3.5-1.3,3.5h-15  c-1.9,0-2.7-2.3-1.3-3.5l7.6-6.5c0.4-0.4,0.7-0.9,0.7-1.5v-15c0-0.6-0.3-1.1-0.7-1.5l-11.1-9.4c-0.4-0.4-0.7-0.9-0.7-1.5V32  c0-1.1,0.9-2,2-2h22C62.1,30,63,30.9,63,32z"></path></svg>