<svg height='100px' width='100px'  fill="#000000" xmlns="http://www.w3.org/2000/svg" xmlns:xlink="http://www.w3.org/1999/xlink" version="1.1" x="0px" y="0px" viewBox="0 0 100 101.3" style="enable-background:new 0 0 100 101.3;" xml:space="preserve"><path d="M17.7,9.6c0,0.3,0,0.5,0,0.8V8.9C17.7,9.1,17.7,9.4,17.7,9.6z"></path><path d="M90.5,41l-0.1,0.2L90.3,41C90.3,41,90.4,41,90.5,41z"></path><path d="M90.3,41l0.1,0.2l0.1-0.2C90.4,41,90.3,41,90.3,41z"></path><path d="M91.2,41.1l2.6-5.5c0.1-0.2,0.1-0.5,0-0.7c-0.1-0.2-0.4-0.3-0.6-0.3h-2.5V19.2c5.1-0.2,9.3-4.4,9.3-9.6  c0-5.3-4.3-9.6-9.6-9.6c-5,0-9.2,3.9-9.6,8.8c-0.1-0.1-0.2-0.2-0.3-0.3l-5.9-2.8c-0.2-0.1-0.5-0.1-0.7,0c-0.2,0.1-0.4,0.4-0.4,0.6  v2.5H58.2c-0.4-5-4.5-8.9-9.6-8.9c-4.8,0-8.8,3.5-9.5,8.2L34,5.7c-0.2-0.1-0.5-0.1-0.7,0c-0.2,0.1-0.3,0.4-0.3,0.6v2.5H19.2  C18.8,3.9,14.7,0,9.6,0C4.3,0,0,4.3,0,9.6c0,5.3,4.3,9.6,9.6,9.6c5,0,9.2-3.9,9.6-8.9h13.7v2.5c0,0.3,0.1,0.5,0.4,0.7  c0.1,0.1,0.2,0.1,0.4,0.1c0.1,0,0.3,0,0.4-0.1l4.9-3c0.4,4.9,4.6,8.8,9.6,8.8c5,0,9.2-3.9,9.6-8.9h15.3v2.5c0,0.3,0.2,0.5,0.4,0.7  c0.1,0.1,0.2,0.1,0.4,0.1c0.1,0,0.3,0,0.4-0.1l5.9-3.6c0.1-0.1,0.2-0.1,0.2-0.2c0,4.9,3.7,8.9,8.5,9.5v15.4h-2.5  c-0.3,0-0.5,0.1-0.7,0.4c-0.1,0.2-0.1,0.5,0,0.8l3.3,5.4c-4.8,0.3-8.6,4.1-9,8.9h0.1v1.5h-0.1c0.4,4.9,4.5,8.9,9.6,8.9  c5.3,0,9.6-4.3,9.6-9.6C99.6,45.8,96,41.7,91.2,41.1z M17.7,10.4c-0.4,4.1-3.9,7.4-8.1,7.4c-4.5,0-8.1-3.6-8.1-8.1s3.6-8.1,8.1-8.1  c4.2,0,7.7,3.2,8.1,7.4c0,0.2,0,0.5,0,0.7S17.7,10.1,17.7,10.4z M48.6,17.7c-4.5,0-8.1-3.6-8.1-8.1s3.6-8.1,8.1-8.1s8.1,3.6,8.1,8.1  S53.1,17.7,48.6,17.7z M90.4,41.2L90.3,41c0.1,0,0.1,0,0.2,0L90.4,41.2z M82.3,9.6c0-4.5,3.6-8.1,8.1-8.1c4.5,0,8.1,3.6,8.1,8.1  s-3.7,8.1-8.1,8.1C85.9,17.7,82.3,14.1,82.3,9.6z M90,58.8c-4.5,0-8.1-3.6-8.1-8.1s3.6-8.1,8.1-8.1c4.5,0,8.1,3.6,8.1,8.1  S94.5,58.8,90,58.8z"></path><path d="M90.3,41l0.1,0.2l0.1-0.2C90.4,41,90.3,41,90.3,41z M80.4,49.9c0,0.2,0,0.5,0,0.7c0,0.3,0,0.5,0,0.8h0.1  v-1.5H80.4z"></path><path d="M80.4,49.9H65.1v-2.5c0-0.3-0.2-0.5-0.4-0.7c-0.2-0.1-0.5-0.1-0.7,0l-5,3.1c-0.4-4.9-4.5-8.8-9.6-8.8  c-5.3,0-9.6,4.3-9.6,9.6c0,5,3.9,9.2,8.9,9.6v15.4h-2.5c-0.3,0-0.5,0.1-0.7,0.4c-0.1,0.2-0.1,0.5,0,0.8l3.3,5.4c-5,0.3-9,4.5-9,9.6  c0,5.3,4.3,9.6,9.6,9.6c5.3,0,9.6-4.3,9.6-9.6c0-4.9-3.6-8.9-8.3-9.5l2.6-5.5c0.1-0.2,0.1-0.5-0.1-0.7c-0.1-0.2-0.4-0.3-0.6-0.3  h-2.5V60.2c4.5-0.3,8.1-3.8,8.7-8.1l5.2,2.5c0.1,0.1,0.2,0.1,0.3,0.1c0.1,0,0.3,0,0.4-0.1c0.2-0.1,0.4-0.4,0.4-0.6v-2.5h15.3  c0-0.3,0-0.5,0-0.8C80.4,50.4,80.4,50.1,80.4,49.9z M57.5,91.7c0,4.5-3.6,8.1-8.1,8.1c-4.5,0-8.1-3.6-8.1-8.1c0-4.5,3.7-8.1,8.1-8.1  C53.8,83.5,57.5,87.2,57.5,91.7z M49.3,58.8c-4.5,0-8.1-3.6-8.1-8.1s3.7-8.1,8.1-8.1c4.5,0,8.1,3.6,8.1,8.1S53.8,58.8,49.3,58.8z"></path><path d="M80.5,49.9v1.5h-0.1c0-0.3,0-0.5,0-0.8c0-0.2,0-0.5,0-0.7H80.5z"></path></svg>