<svg height='100px' width='100px'  fill="#000000" xmlns="http://www.w3.org/2000/svg" xmlns:xlink="http://www.w3.org/1999/xlink" version="1.1" x="0px" y="0px" viewBox="0 0 100 100" enable-background="new 0 0 100 100" xml:space="preserve"><g><path d="M91.012,36.109L78.284,48.837l-1.061-1.061c-1.688-1.688-3.51-3.191-5.434-4.518l1.505-2.606   c1.74,1.185,3.404,2.502,4.971,3.961l8.489-8.489c-2.696-2.553-5.619-4.782-8.713-6.694L75.3,34.183l-2.599-1.5l2.744-4.756   c-3.23-1.752-6.626-3.169-10.149-4.214l-1.293,4.828l-2.897-0.776l1.292-4.824c-3.538-0.836-7.187-1.304-10.897-1.405v4.966h-3   v-4.966c-3.711,0.102-7.359,0.569-10.897,1.405l1.292,4.824l-2.898,0.776l-1.293-4.828c-3.524,1.045-6.919,2.462-10.15,4.215   l2.494,4.322l-2.598,1.499l-2.492-4.319c-3.094,1.912-6.016,4.142-8.712,6.694l8.489,8.489C29.438,37.435,39.417,33.5,50,33.5   c6.377,0,12.522,1.454,18.095,4.161l-1.492,2.585C61.483,37.796,55.842,36.5,50,36.5c-10.284,0-19.952,4.005-27.224,11.276   l-1.061,1.061L8.988,36.109l1.061-1.061C20.72,24.377,34.909,18.5,50,18.5c15.092,0,29.279,5.877,39.951,16.549L91.012,36.109z    M53.672,71.639c1.433,1.566,1.777,3.925,0.659,5.86C53.405,79.104,51.724,80,49.996,80c-0.848,0-1.708-0.216-2.495-0.671   c-2.393-1.381-3.211-4.438-1.83-6.83c0.926-1.604,2.606-2.501,4.334-2.501c0.359,0,0.72,0.048,1.078,0.127l20.868-36.144l2.598,1.5   L53.672,71.639z M51,73.267c-0.308-0.178-0.643-0.269-0.995-0.269c-0.714,0-1.379,0.384-1.736,1.001   c-0.268,0.463-0.338,1.002-0.2,1.518S48.538,76.464,49,76.73c0.31,0.179,0.644,0.27,0.996,0.27c0.715,0,1.381-0.384,1.737-1.001   C52.284,75.044,51.956,73.818,51,73.267z"></path></g></svg>