<svg height='100px' width='100px'  fill="#000000" xmlns:x="http://ns.adobe.com/Extensibility/1.0/" xmlns:i="http://ns.adobe.com/AdobeIllustrator/10.0/" xmlns:graph="http://ns.adobe.com/Graphs/1.0/" xmlns="http://www.w3.org/2000/svg" xmlns:xlink="http://www.w3.org/1999/xlink" version="1.1" x="0px" y="0px" viewBox="0 0 100 100" style="enable-background:new 0 0 100 100;" xml:space="preserve"><g><g i:extraneous="self"><g><ellipse transform="matrix(0.3685 -0.9296 0.9296 0.3685 29.3631 68.6956)" cx="65.2" cy="12.7" rx="10.2" ry="10.2"></ellipse><path d="M85.1,42l-8.9-0.4l-5-9.3c-1.3-2.5-3.6-4.5-6.2-5.6L55.7,23c-2.5-1-5.2-1.1-7.8-0.4l-11.3,3.2c-1,0.3-1.9,0.9-2.5,1.8     l-6.9,10c-1.4,2.1-0.9,4.9,1.2,6.3c2.1,1.4,4.9,0.9,6.3-1.2l6-8.7l7.2-2.1l-9.1,22.8L31.9,66l-15.4-1.8c-2.9-0.3-5.5,1.8-5.9,4.7     c-0.3,2.9,1.8,5.5,4.7,5.9L34,76.9c0.2,0,0.4,0,0.6,0c1.8,0,3.5-0.9,4.5-2.5l8.4-13.7l9.3,15L59.5,93c0.4,2.6,2.7,4.5,5.2,4.5     c0.3,0,0.5,0,0.8-0.1c2.9-0.4,4.9-3.1,4.5-6l-2.7-18.3c-0.1-0.7-0.4-1.4-0.7-2l-8.7-13.9l7.1-17.4l4.5,8.4     c0.8,1.4,2.2,2.3,3.8,2.4l11.5,0.5c0.1,0,0.1,0,0.2,0c2.4,0,4.4-1.9,4.5-4.3C89.6,44.3,87.6,42.1,85.1,42z"></path></g></g></g></svg>