<svg height='100px' width='100px'  fill="#000000" xmlns="http://www.w3.org/2000/svg" xmlns:xlink="http://www.w3.org/1999/xlink" version="1.1" x="0px" y="0px" viewBox="0 0 26 26" enable-background="new 0 0 26 26" xml:space="preserve"><g><path d="M13.13499,5.03005c-5.52,0-10,4.48-10,10s4.48,10,10,10s10-4.48,10-10S18.65499,5.03005,13.13499,5.03005z    M13.13499,23.03005c-4.40991,0-8-3.5899-8-8c0-4.4102,3.59009-8,8-8c4.41,0,8,3.5898,8,8   C21.13499,19.44015,17.54499,23.03005,13.13499,23.03005z"></path><path d="M13.80499,9.07005c-0.22-0.0302-0.44-0.04-0.67-0.04v6.0098h6v-0.0098c0-0.1802-0.01-0.3599-0.03-0.5303   C18.86499,11.65995,16.62499,9.38015,13.80499,9.07005z"></path><path d="M21.15499,3.03985c-0.39-0.3897-1.02-0.3897-1.41,0c-0.39,0.3901-0.39,1.02,0,1.4101l0.3,0.2998l-1.00991,1   c0.56991,0.3604,1.10991,0.7705,1.59991,1.2305l0.82-0.8203l0.29,0.29c0.373,0.3931,1.025,0.4058,1.41,0   c0.39-0.3901,0.39-1.02,0-1.4101L21.15499,3.03985z"></path><path d="M4.25499,6.44995l0.3-0.29l0.95,0.9502c0.48-0.4702,1.01-0.8902,1.57-1.25l-1.11-1.1104l0.29-0.2998   c0.39-0.3901,0.39-1.02,0-1.4101c-0.39-0.3897-1.02-0.3897-1.40991,0l-2,2c-0.39009,0.3901-0.39009,1.02,0,1.4101   C3.23008,6.85575,3.88199,6.84305,4.25499,6.44995z"></path><path d="M13.13499,4.03005c0.34009,0,0.68,0.02,1.02,0.0498v-1.1099h2.04c0.55,0,1-0.4497,1-1c0-0.56-0.45-1-1-1h-6.08   c-0.55,0-1,0.44-1,1c0,0.5503,0.45,1,1,1h2.04v1.1099C12.48499,4.03985,12.80499,4.03005,13.13499,4.03005z"></path></g></svg>